<svg id="Layer_1" data-name="Layer 1" xmlns="http://www.w3.org/2000/svg" viewBox="0 0 300 300"><defs><style>.cls-1{fill:#fff;}.cls-2{fill:none;stroke:#fff;stroke-miterlimit:10;}.cls-3{fill:#ededed;opacity:0.2;}</style></defs><title>icons</title><path class="cls-1" d="M34.32,13.28v1A15.63,15.63,0,0,1,49.39,25.85L90.71,179.48l-33.4,9L16,34.83A15.61,15.61,0,0,1,27,15.69l3.23-.87a15.58,15.58,0,0,1,4.07-.54v-1m0,0a16.57,16.57,0,0,0-4.33.57l-3.23.87A16.62,16.62,0,0,0,15,35.09L56.6,189.68l35.33-9.5L50.36,25.59a16.63,16.63,0,0,0-16-12.31Z"/><path class="cls-1" d="M94.34,194.68l-4.49,48.21L61.79,203.44l32.55-8.76m1.13-1.34-35.33,9.5L90.6,245.66l4.87-52.32Z"/><line class="cls-2" x1="57.55" y1="193.2" x2="92.88" y2="183.7"/><line class="cls-2" x1="58.28" y1="195.93" x2="93.61" y2="186.42"/><line class="cls-2" x1="59.01" y1="198.65" x2="94.34" y2="189.15"/><path class="cls-1" d="M56.71,112h0a5.21,5.21,0,0,1,5,3.86l9.2,34.2a5.21,5.21,0,0,1-3.68,6.38l-1.2.32a5.21,5.21,0,0,1-6.39-3.67l-9.19-34.2a5.2,5.2,0,0,1,3.68-6.38l1.2-.33a5.24,5.24,0,0,1,1.36-.18m0-1a6,6,0,0,0-1.62.22l-1.2.32a6.21,6.21,0,0,0-4.39,7.61l9.2,34.2a6.2,6.2,0,0,0,6,4.59,6.49,6.49,0,0,0,1.62-.21l1.2-.33a6.19,6.19,0,0,0,4.38-7.6l-9.19-34.2a6.22,6.22,0,0,0-6-4.6Z"/><line class="cls-2" x1="55.05" y1="139.8" x2="68.25" y2="136.25"/><path class="cls-3" d="M115.49,42.19,94.65,160.37,61.73,38a18.29,18.29,0,1,0-35.33,9.5L71.08,213.6l11.36,16-10,56.77H242.12L285.17,42.19Z"/><polyline class="cls-2" points="83.39 150.78 104.48 31.18 274.17 31.18 231.11 275.34 61.43 275.34 71.42 218.7"/><line class="cls-2" x1="118.74" y1="48.32" x2="159.75" y2="48.32"/><line class="cls-2" x1="81.24" y1="261.01" x2="122.24" y2="261.01"/><line class="cls-2" x1="170.49" y1="261.01" x2="211.5" y2="261.01"/><line class="cls-2" x1="207.99" y1="48.32" x2="249" y2="48.32"/><line class="cls-2" x1="125.57" y1="48.32" x2="88.07" y2="261.01"/><line class="cls-2" x1="153.72" y1="48.32" x2="116.21" y2="261.01"/><line class="cls-2" x1="139.4" y1="129.53" x2="205.87" y2="261.01"/><line class="cls-2" x1="132.12" y1="170.8" x2="177.73" y2="261.01"/><line class="cls-2" x1="228.5" y1="48.32" x2="152.76" y2="155.96"/></svg>