<svg id="Layer_1" data-name="Layer 1" xmlns="http://www.w3.org/2000/svg" viewBox="0 0 300 300"><defs><style>.cls-1{fill:#fff;opacity:0.2;}.cls-2{fill:none;stroke:#fff;stroke-miterlimit:10;}</style></defs><title>icons</title><path class="cls-1" d="M297.19,155.52c0-16.2-31.44-30.24-77.36-37.13,17-43.21,20.56-77.47,6.53-85.57s-41.91,12.12-70.84,48.44C126.59,44.94,98.71,24.72,84.68,32.82s-10.46,42.36,6.53,85.57c-45.92,6.89-77.37,20.93-77.37,37.13s31.45,30.24,77.37,37.13c-17,43.21-20.56,77.46-6.53,85.56s41.91-12.11,70.84-48.44c28.93,36.33,56.81,56.54,70.84,48.44s10.46-42.35-6.53-85.56C265.75,185.76,297.19,171.72,297.19,155.52Z"/><ellipse class="cls-2" cx="144.48" cy="144.48" rx="41.66" ry="141.68" transform="translate(-52.88 91.6) rotate(-30)"/><ellipse class="cls-2" cx="144.48" cy="144.48" rx="141.68" ry="41.66" transform="translate(-52.88 197.37) rotate(-60)"/><ellipse class="cls-2" cx="144.48" cy="144.48" rx="141.68" ry="41.66"/><circle class="cls-2" cx="144.48" cy="144.48" r="21.98"/></svg>