<svg id="Layer_1" data-name="Layer 1" xmlns="http://www.w3.org/2000/svg" viewBox="0 0 300 300"><defs><style>.cls-1{opacity:0.2;}.cls-2{fill:#ededed;}.cls-3{fill:none;stroke:#fff;stroke-miterlimit:10;}</style></defs><title>icons</title><g id="Ixffy9" class="cls-1"><path class="cls-2" d="M54.26,244c-8.37-1.37-16.48-2.82-24.24-5.69-4-1.48-7.86-3.27-10.63-6.71-3.9-4.88-2.34-9.72,3.7-10.94,21.47-4.32,36.51-17.31,48.07-35.16a79.1,79.1,0,0,0,7.12-13.22c2.54-6.3.89-10.49-5.08-13.83a61.35,61.35,0,0,0-11.1-4.36c-4.8-1.57-9.43-3.47-13.18-7-5.21-4.89-4.77-11.3,1.12-15.36,4.31-3,9-3.68,13.91-1.57,3.67,1.57,7.41,3,11.48,3,4.48,0,5.65-1.13,5.46-5.94-.3-7.46-.8-14.91-1.08-22.36a156.72,156.72,0,0,1,.67-20.44c2.07-22.2,21.34-49.29,53.31-56.49,22.05-5,43.72-3.76,63.46,8.31s31.13,29.83,32.8,53.32c.95,13.4-.34,26.75-.73,40.12,0,.9,0,1.79,0,2.71,3.17,2.4,6.47,1.14,9.62.37a56.7,56.7,0,0,0,6.87-2.52,16.36,16.36,0,0,1,17.4,4,9.15,9.15,0,0,1-.88,12.84,34.2,34.2,0,0,1-12.73,7c-4.28,1.4-8.65,2.55-12.54,4.91-4.87,3-7,7.25-4.88,12.07,10.29,23.7,26.12,41.7,51.92,49,1.36.39,2.78.54,4.16.85,4.85,1.11,6.6,4.91,4.33,9.32a13.32,13.32,0,0,1-5.87,5.4c-8.15,4.46-17.12,6.28-26.13,7.78-3.18.53-4.76,1.84-5.25,5-.4,2.66-1.33,5.23-1.94,7.85-.9,3.87-3.34,5.8-7.23,5.41-4.6-.47-9.15-1.38-13.74-1.93-12.44-1.48-24,.38-34.3,8.27-7.24,5.52-14.65,11.09-23.42,14C157,288.13,140,286.4,124.1,276.11c-3.89-2.52-7.87-4.94-11.49-7.82-11.52-9.18-24.66-10-38.45-7.92-2.93.45-5.83,1.12-8.77,1.38-4.41.41-6.6-1.29-8-5.56C56.16,252.28,56.21,248,54.26,244Z"/></g><g id="Ixffy9-2" data-name="Ixffy9"><path class="cls-3" d="M43.44,233.21c-8.38-1.38-16.49-2.83-24.25-5.69-4-1.48-7.86-3.27-10.62-6.72-3.91-4.87-2.34-9.72,3.7-10.93,21.47-4.32,36.51-17.31,48.06-35.17a77.91,77.91,0,0,0,7.12-13.21c2.55-6.3.9-10.49-5.07-13.84a61.86,61.86,0,0,0-11.11-4.35c-4.79-1.57-9.43-3.48-13.18-7-5.2-4.89-4.77-11.31,1.13-15.36,4.31-3,9-3.68,13.9-1.57,3.68,1.57,7.41,3,11.49,3,4.48,0,5.64-1.13,5.45-5.94-.29-7.46-.8-14.91-1.08-22.37a156.85,156.85,0,0,1,.68-20.44C71.72,51.45,91,24.36,123,17.16c22-5,43.72-3.77,63.46,8.31s31.12,29.82,32.79,53.31c.95,13.41-.34,26.76-.72,40.13,0,.89,0,1.78,0,2.7,3.18,2.41,6.47,1.15,9.62.38a57.15,57.15,0,0,0,6.87-2.52,16.35,16.35,0,0,1,17.41,4,9.15,9.15,0,0,1-.89,12.83,33.85,33.85,0,0,1-12.73,7c-4.27,1.4-8.65,2.55-12.53,4.91-4.87,3-7,7.25-4.88,12.07,10.29,23.71,26.11,41.7,51.92,49,1.36.38,2.78.53,4.16.85,4.84,1.11,6.6,4.91,4.32,9.32a13.38,13.38,0,0,1-5.87,5.4c-8.14,4.46-17.11,6.27-26.12,7.78-3.19.53-4.77,1.84-5.25,5-.41,2.65-1.34,5.22-2,7.85-.9,3.86-3.34,5.8-7.23,5.4-4.6-.47-9.14-1.38-13.73-1.92-12.44-1.48-24,.38-34.31,8.26-7.24,5.53-14.65,11.09-23.42,14-17.76,6-34.74,4.22-50.61-6.06-3.89-2.52-7.87-5-11.48-7.82-11.53-9.18-24.66-10.05-38.46-7.93-2.92.45-5.82,1.12-8.76,1.39-4.42.4-6.61-1.3-8-5.56C45.34,241.45,45.38,237.21,43.44,233.21Z"/></g></svg>