<svg id="Layer_1" data-name="Layer 1" xmlns="http://www.w3.org/2000/svg" viewBox="0 0 300 300"><defs><style>.cls-1{fill:#fff;}.cls-2{fill:none;stroke:#fff;stroke-miterlimit:10;stroke-width:3px;}.cls-3{fill:#ededed;opacity:0.2;}</style></defs><title>icons</title><path class="cls-1" d="M34.32,13.28v3A13.64,13.64,0,0,1,47.46,26.37l40.79,151.7L58.72,186,17.92,34.31a13.61,13.61,0,0,1,9.62-16.69l3.23-.87a13.73,13.73,0,0,1,3.55-.47v-3m0,0a16.57,16.57,0,0,0-4.33.57l-3.23.87A16.62,16.62,0,0,0,15,35.09L56.6,189.68l35.33-9.5L50.36,25.59a16.63,16.63,0,0,0-16-12.31Z"/><path class="cls-1" d="M92.08,197.36l-3.72,40L65.09,204.62l27-7.26m3.39-4-35.33,9.5L90.6,245.66l4.87-52.32Z"/><line class="cls-2" x1="58.28" y1="195.93" x2="93.61" y2="186.42"/><path class="cls-1" d="M56.71,114a3.21,3.21,0,0,1,3.09,2.38l9.2,34.2a3.18,3.18,0,0,1-.32,2.43,3.23,3.23,0,0,1-2,1.5l-1.2.32a3,3,0,0,1-.84.11,3.19,3.19,0,0,1-3.09-2.37l-9.2-34.2a3.21,3.21,0,0,1,2.26-3.93l1.21-.33a3.46,3.46,0,0,1,.84-.11m0-3a6,6,0,0,0-1.62.22l-1.2.32a6.21,6.21,0,0,0-4.39,7.61l9.2,34.2a6.2,6.2,0,0,0,6,4.59,6.49,6.49,0,0,0,1.62-.21l1.2-.33a6.19,6.19,0,0,0,4.38-7.6l-9.19-34.2a6.22,6.22,0,0,0-6-4.6Z"/><line class="cls-2" x1="55.05" y1="139.8" x2="68.25" y2="136.25"/><path class="cls-3" d="M115.49,42.19,94.65,160.37,61.73,38a18.29,18.29,0,1,0-35.33,9.5L71.08,213.6l11.36,16-10,56.77H242.12L285.17,42.19Z"/><polyline class="cls-2" points="83.39 150.78 104.48 31.18 274.17 31.18 231.11 275.34 61.43 275.34 71.42 218.7"/><line class="cls-2" x1="118.74" y1="48.32" x2="159.75" y2="48.32"/><line class="cls-2" x1="81.24" y1="261.01" x2="122.24" y2="261.01"/><line class="cls-2" x1="170.49" y1="261.01" x2="211.5" y2="261.01"/><line class="cls-2" x1="207.99" y1="48.32" x2="249" y2="48.32"/><line class="cls-2" x1="125.57" y1="48.32" x2="88.07" y2="261.01"/><line class="cls-2" x1="153.72" y1="48.32" x2="116.21" y2="261.01"/><line class="cls-2" x1="139.4" y1="129.53" x2="205.87" y2="261.01"/><line class="cls-2" x1="132.12" y1="170.8" x2="177.73" y2="261.01"/><line class="cls-2" x1="228.5" y1="48.32" x2="152.76" y2="155.96"/></svg>