<svg id="Layer_1" data-name="Layer 1" xmlns="http://www.w3.org/2000/svg" viewBox="0 0 300 300"><defs><style>.cls-1{fill:#fff;opacity:0.2;}.cls-2{fill:none;stroke:#fff;stroke-miterlimit:10;stroke-width:3px;}</style></defs><title>icons</title><path class="cls-1" d="M265.08,96.66H246V26.75H31.44V257.38H179.61v12.4a13.47,13.47,0,0,0,13.47,13.47h72a13.48,13.48,0,0,0,13.48-13.47V110.14A13.48,13.48,0,0,0,265.08,96.66Z"/><rect class="cls-2" x="21.44" y="16.75" width="214.52" height="18.29"/><rect class="cls-2" x="33.04" y="48.84" width="63.53" height="63.53"/><polygon class="cls-2" points="33.04 92.91 52.11 73.84 83.88 105.61 77.12 112.37 33.04 112.37 33.04 92.91"/><polyline class="cls-2" points="58.67 80.4 81.02 58.05 96.58 73.61"/><rect class="cls-2" x="169.61" y="86.66" width="98.95" height="186.59" rx="13.48" ry="13.48"/><path class="cls-2" d="M195.33,86.66H247.2a0,0,0,0,1,0,0v5a7.77,7.77,0,0,1-7.77,7.77H203.1a7.77,7.77,0,0,1-7.77-7.77v-5A0,0,0,0,1,195.33,86.66Z"/><path class="cls-2" d="M195.33,260.45H247.2a0,0,0,0,1,0,0v5a7.77,7.77,0,0,1-7.77,7.77H203.1a7.77,7.77,0,0,1-7.77-7.77v-5A0,0,0,0,1,195.33,260.45Z" transform="translate(442.53 533.71) rotate(180)"/><rect class="cls-2" x="189.5" y="193" width="65.58" height="80.25"/><rect class="cls-2" x="189.5" y="116.73" width="63.53" height="63.53"/><polygon class="cls-2" points="189.5 160.8 208.56 141.74 240.34 173.51 233.58 180.27 189.5 180.27 189.5 160.8"/><polyline class="cls-2" points="215.12 148.29 237.47 125.94 253.03 141.5"/><polyline class="cls-2" points="169.61 247.38 21.44 247.38 21.44 16.75 235.96 16.75 235.96 86.66"/><polyline class="cls-2" points="169.61 233.84 106.69 233.84 106.69 48.45 224.53 48.45 224.53 86.66"/><line class="cls-2" x1="118.04" y1="61.48" x2="209.22" y2="61.48"/><line class="cls-2" x1="118.04" y1="74.58" x2="189.5" y2="74.58"/><line class="cls-2" x1="118.04" y1="87.68" x2="169.61" y2="87.68"/><line class="cls-2" x1="118.04" y1="100.78" x2="171.21" y2="100.78"/><line class="cls-2" x1="118.04" y1="113.88" x2="169.61" y2="113.88"/><line class="cls-2" x1="118.04" y1="126.98" x2="169.61" y2="126.98"/><line class="cls-2" x1="118.04" y1="140.08" x2="170.1" y2="140.08"/><line class="cls-2" x1="118.04" y1="153.18" x2="155" y2="153.18"/><line class="cls-2" x1="118.04" y1="166.28" x2="170.1" y2="166.28"/><line class="cls-2" x1="118.04" y1="179.38" x2="169.61" y2="179.38"/><line class="cls-2" x1="118.04" y1="192.48" x2="169.61" y2="192.48"/><line class="cls-2" x1="118.04" y1="205.58" x2="169.61" y2="205.58"/><line class="cls-2" x1="118.04" y1="218.68" x2="169.61" y2="218.68"/><line class="cls-2" x1="200.2" y1="204.82" x2="244.15" y2="204.82"/><line class="cls-2" x1="200.2" y1="216.16" x2="234.65" y2="216.16"/><line class="cls-2" x1="200.2" y1="227.51" x2="225.06" y2="227.51"/><line class="cls-2" x1="200.2" y1="238.85" x2="237.37" y2="238.85"/><line class="cls-2" x1="200.2" y1="250.19" x2="225.06" y2="250.19"/></svg>