<svg id="Layer_1" data-name="Layer 1" xmlns="http://www.w3.org/2000/svg" viewBox="0 0 300 300"><defs><style>.cls-1{fill:#ededed;opacity:0.2;}.cls-2{fill:none;stroke:#fff;stroke-miterlimit:10;}</style></defs><title>icons</title><path class="cls-1" d="M293.13,70.65H18V212.9H122.65a33.74,33.74,0,0,1-3.45,12.95c-4.57,9-12.71,13.5-24.17,13.5v1.17H216.14v-1.17c-25.37,0-27.46-22.42-27.63-26.45H293.13Z"/><rect class="cls-2" x="6.87" y="59.48" width="273.92" height="141.07"/><path class="cls-2" d="M176.14,200.55s0,27.63,28.25,27.63H83.27c28.21,0,28.24-27.63,28.24-27.63"/><rect class="cls-2" x="179.97" y="71.24" width="82.29" height="115.21"/><rect class="cls-2" x="18.62" y="71.23" width="145.78" height="115.21"/><rect class="cls-2" x="18.62" y="71.23" width="145.78" height="10.47"/><line class="cls-2" x1="190.68" y1="84.05" x2="226.28" y2="84.05"/><line class="cls-2" x1="190.68" y1="90.02" x2="210.53" y2="90.02"/><line class="cls-2" x1="190.68" y1="96" x2="234.27" y2="96"/><line class="cls-2" x1="190.68" y1="101.97" x2="214.99" y2="101.97"/><line class="cls-2" x1="190.68" y1="107.94" x2="235.6" y2="107.94"/><line class="cls-2" x1="190.68" y1="113.92" x2="215.73" y2="113.92"/><line class="cls-2" x1="190.68" y1="119.89" x2="245.68" y2="119.89"/><line class="cls-2" x1="190.68" y1="125.86" x2="221.35" y2="125.86"/><line class="cls-2" x1="190.68" y1="131.84" x2="219.76" y2="131.84"/><line class="cls-2" x1="190.68" y1="137.81" x2="206.9" y2="137.81"/><line class="cls-2" x1="190.68" y1="143.78" x2="226.28" y2="143.78"/><line class="cls-2" x1="190.68" y1="149.75" x2="210.53" y2="149.75"/><line class="cls-2" x1="190.68" y1="155.73" x2="227.37" y2="155.73"/><line class="cls-2" x1="190.68" y1="161.7" x2="211.14" y2="161.7"/><line class="cls-2" x1="190.68" y1="167.67" x2="235.6" y2="167.67"/><line class="cls-2" x1="190.68" y1="173.65" x2="215.73" y2="173.65"/><rect class="cls-2" x="111.92" y="90.02" width="43.09" height="43.09"/><rect class="cls-2" x="28.19" y="90.02" width="75.69" height="96.43"/><rect class="cls-2" x="111.92" y="140.16" width="43.09" height="46.29"/></svg>