<svg id="Layer_1" data-name="Layer 1" xmlns="http://www.w3.org/2000/svg" viewBox="0 0 300 300"><defs><style>.cls-1{fill:#ededed;opacity:0.2;}.cls-2{fill:none;stroke:#fff;stroke-miterlimit:10;}.cls-3{fill:#fff;}</style></defs><title>icons</title><path class="cls-1" d="M201.71,106.67a91,91,0,1,0-95.11,95,91,91,0,1,0,95.11-95Z"/><path class="cls-2" d="M64.42,60.93h49.44A19.05,19.05,0,0,1,132.91,80v3.37a19.05,19.05,0,0,1-19.05,19.05H64.42a0,0,0,0,1,0,0V60.93A0,0,0,0,1,64.42,60.93Z"/><path class="cls-2" d="M64.42,102.4h57.06a19.05,19.05,0,0,1,19.05,19.05v3.37a19.05,19.05,0,0,1-19.05,19.05H64.42a0,0,0,0,1,0,0V102.4A0,0,0,0,1,64.42,102.4Z"/><line class="cls-2" x1="91.83" y1="143.88" x2="91.83" y2="158.73"/><line class="cls-2" x1="113.12" y1="143.88" x2="113.12" y2="158.73"/><line class="cls-2" x1="91.83" y1="46.08" x2="91.83" y2="60.93"/><line class="cls-2" x1="113.12" y1="46.08" x2="113.12" y2="60.93"/><circle class="cls-2" cx="102.47" cy="102.4" r="91.03"/><circle class="cls-2" cx="189.22" cy="189.29" r="91.03"/><path class="cls-3" d="M189.22,113.86l40.65,75.43-40.65,75.42-40.66-75.42,40.66-75.43m0-2.1-41.79,77.53,41.79,77.52L231,189.29l-41.79-77.53Z"/><path class="cls-3" d="M189.22,171.31l39.38,18-39.38,18-39.38-18,39.38-18m0-1.1-41.79,19.08,41.79,19.07L231,189.29l-41.79-19.08Z"/></svg>