<svg id="Layer_1" data-name="Layer 1" xmlns="http://www.w3.org/2000/svg" viewBox="0 0 1519.12 1519.12"><defs><style>.cls-1{fill:none;stroke:#e0e0e0;stroke-miterlimit:10;}</style></defs><title>wavy</title><path class="cls-1" d="M1486.33-150.34c2,157.94,35.94,316.34,64.08,471.18,18.94,104.28,42.2,208.87,43.85,315.25,3.27,211.32-7.28,426.44-12.74,633.25-1.58,59.66-21.46,113.72-45.56,169-24.83,57-40.62,111.67-40.82,174.35"/><path class="cls-1" d="M1436-133c3.65,256.45,114.14,501.94,94.2,759.66-16.9,218.43,3.6,441.89-3.8,655.32-2.1,60.44-25.51,113.41-53.54,167.75-28.86,56-47.56,109.48-48,173.19"/><path class="cls-1" d="M1392.09-109.6c2.09,134.26,40.38,266.7,67,397.48,12.57,61.79,24,123.88,24.31,187.14.24,50.14-6.55,99.58-15.09,148.88-18.9,109.19-25.34,214.72-16.72,325.45,9.05,116.42,30.48,235.9,24.27,349.68-3.35,61.63-31.44,113-64.08,166.06-33.46,54.39-56.39,106.75-57.87,171.6"/><path class="cls-1" d="M1349.94-84.57c2,125.69,42.74,247.82,68.73,369.81,12.88,60.42,22.56,120.64,18.26,182.6-3.73,53.64-16.35,105.78-29.92,157.63-13.72,52.43-27.34,104.92-32.86,159-6,59.09-.69,118.23,7.52,176.86,16.43,117.35,54,240.49,44.93,355.93-4.92,62.78-38,112.83-75.33,164.25-38.16,52.64-65.57,103.61-68.37,169.92"/><path class="cls-1" d="M1304.81-62.33c2,120.57,45.87,235.15,71.2,351.83,12.56,57.87,19.8,114.85,12.14,174-7.38,56.9-25.33,111.44-43.51,165.63-17.53,52.27-34.94,104.83-43.11,159.54-9.39,62.87-1.38,124.88,10.84,186.82,23,116.51,74,242.23,62.82,358-6.17,63.93-44.1,112.81-85.38,162.63-42.21,50.93-73.87,100.64-77.69,168.41"/><path class="cls-1" d="M1252-47.33c2,116.84,48.21,225,72.9,337.71,12.55,57.27,18.17,114.2,8.07,172.33-10.2,58.69-32.09,114.39-53.39,169.74-20.46,53.17-40.92,106.89-50.43,163.3-10.62,63-1.25,125.12,13.25,186.72,27.64,117.43,87.62,244,75.9,361.93-6.45,64.85-48.27,113.2-92.37,161.5-45.17,49.47-80.14,98.29-83.93,167.42"/><path class="cls-1" d="M1187.11-44C1189,72.05,1237.83,176.76,1262,288.56c12.44,57.66,16.26,115.92,5.14,174.14-11.33,59.33-34.6,115.42-56.94,171.27-21.14,52.87-42.32,106.51-51.42,163-10,62.18-1.12,124.52,13.78,185.16,29.23,119,90.82,244,80.16,363.73-5.81,65.16-49.21,113.77-93.8,161.92-45.61,49.25-82.25,98-85.63,167.56"/><path class="cls-1" d="M1116-55c1.77,116.85,55.33,220.16,78.84,332.64,25.09,120.06-9.66,229.59-53.12,340.6-20.24,51.69-39.87,104.12-46.5,159.6-6.83,57.16.1,115.19,12.16,171.17,26.39,122.49,85.5,250.29,76.41,372.76-9.81,132.1-161.15,209.34-169.73,348.67"/><path class="cls-1" d="M1042.6-76.53c2,113.42,57.13,211.51,81.72,320,26.49,116.88-7.51,229.78-48.57,338.72-17.11,45.38-32.75,91.17-37.41,139.74-5.48,57.18-1,115.89,8.84,172.34,22,127,72.09,255.37,67.71,381.34C1110,1415,971.38,1516,964,1660.81"/><path class="cls-1" d="M968.1-103.61c2.52,114.32,64.24,210,88.09,319.24,23.63,108.25-9.74,219.46-46.13,320.94-80,223,32.87,461.44,36,681.24,2.15,150.06-122.95,276.69-127.25,430.9"/><path class="cls-1" d="M893.46-131.3c3,110.65,65.89,200.31,91.51,305,25.76,105.31-8.47,218.66-42.71,318.39-11.8,34.37-20,68.5-20.78,105-1.1,55.13-1.59,111.2,3.56,166.18,5.43,58,16.12,115.41,25.5,172.9,12.07,73.92,22.36,149.61,26.74,222.5,9.73,162.13-102.07,311.91-103.08,477.59"/><path class="cls-1" d="M819.74-154.64c3.39,112.1,73.23,199.08,97.6,305.21,13.81,60.16,2.22,120-10.08,179.52-9.16,44.3-22.51,86.82-37.24,129.49-10.22,29.58-16.26,58.81-16.61,90.21-.6,54.56-1.7,109.91,2.58,164.38,4.3,54.62,13.39,108.71,22,162.77,12.22,77.1,23.29,155.92,30.5,231.83,16.41,172.74-83.61,340.91-82.67,517.13"/><path class="cls-1" d="M748-168.68c3.39,110.73,75.21,193.73,100.33,297.87,15.91,66-1.23,131.65-17.12,196.08-10.51,42.61-24.54,83.51-40.2,124.44-10.84,28.34-16.85,56.19-17.91,86.59-1.79,51.15-1.27,103.29,3.58,154.25,12.39,130.11,48.31,260.74,62.91,387.74,20.59,179.19-70.2,358.65-70.33,541.33"/><path class="cls-1" d="M680-168.84c2.24,57.17,19.53,108.8,43,160.5,20.67,45.5,44.7,90.27,55.91,139.34,15.41,67.41-4.93,131.67-24,196.33-13.63,46.2-30.84,90.68-48.81,135.3-80.87,200.82,44.16,419.42,64.13,615.92,18.22,179.29-64.71,359-67.77,541.29"/><path class="cls-1" d="M620.38-155.9c1.47,57,16,110,35.61,163.16,17.82,48.25,39,96.2,47,147.37,9.62,61.65-9.94,118.12-27.63,176.6-15.69,51.9-34,102.9-50.08,154.67a616.85,616.85,0,0,0-24.77,119.2c-5.51,53,.46,103.27,11.93,155.15,25.83,116.81,78.18,232.94,87.5,350.64,13.59,171.84-60.61,342.58-63.82,516.8"/><path class="cls-1" d="M566.91-134.4C565.44-25.63,613.81,72,622.59,178.83c5.09,62-17,119.13-33.31,178C574.42,410.3,559.71,464,549.15,518.51c-19.31,99.74-24.36,199.31-2.72,299,25,114.89,75.29,230.45,82.66,346.45,10.1,158.92-55,315.91-57.59,476.81"/><path class="cls-1" d="M516.3-108.9c-6.33,110.13,31,216,27.75,325.35-1.68,56.18-24.74,108.67-37.47,162.9A1251.7,1251.7,0,0,0,478,553.65c-9.7,108.6-10.38,220.42,9.78,327.8,21.51,114.55,64.43,230,70.21,345.17,7.19,143.4-48.62,284.48-50.31,429.58"/><path class="cls-1" d="M465.29-84c-9.64,111.86,18.26,224.37,4.5,335.58-6.3,50.95-30.08,97-40,147.41-12,61.07-16.77,123.31-17.71,185.47-1.74,115.67,2.26,235.51,18.81,350.09,17,117.65,51.76,235.74,55.94,353.38,4.56,128.14-42.3,253.76-43.18,383.36"/><path class="cls-1" d="M410.62-64.14c-8.94,110.79,11.55,223.86-5.09,333.88-7.66,50.6-33.64,94.1-42.55,144.49-11.05,62.56-12.3,126.7-11.14,190,1.21,66.69,5.9,133.25,10.63,199.76,4.13,58.11,5,116.25,11.48,174.2,13.37,119.61,40.28,239.36,42.19,358.71,1.86,115.84-36.86,229.27-37.4,346.4"/><path class="cls-1" d="M349-54c-2.26,111.19,19.11,225.23,3.86,335.83-6.09,44.16-29.34,79.92-39.46,122.67-15.5,65.51-16.18,134.74-16,201.7.17,71.42,3.65,142.77,6.32,214.13,2.21,59.23,2.57,118.25,8.32,177.31,11.83,121.7,35.21,243.3,34,364.88-1.06,109.38-33.39,216.47-34.18,327"/><path class="cls-1" d="M284.58-57c6,107,22.27,216.34,12.38,323.55-4.13,44.68-22.44,80.59-33.45,123.26-17.16,66.54-19.29,137-20.74,205.38-2.8,132-6.47,265.89,4.53,397.56,10.13,121.28,33,245.42,28.15,366.85-4.36,109.73-23.3,218.93-27.21,329.17"/><path class="cls-1" d="M231.64-70.7c7.85,105.56,10.93,212.83-1.33,318.19-5.27,45.31-19.8,85.62-29.37,129.77C186.73,442.83,185.85,511.15,185.69,578c-.31,130.43-2.36,261.12,2.83,391.41,4.94,123.9,17.59,250.28,13.57,374-3.69,113.51,1.24,227.55-2.74,341.34"/><path class="cls-1" d="M186.37-91c5.66,106.91-8.47,212.89-27.5,317.88-8.72,48.14-21.94,96-28.57,144.41-8.4,61.18-6,123.58-3,185.06,6.14,127.78,8.85,254.53,6.39,382.47-2.44,126.91-6.82,254.78-6.67,380.61.15,119.85,34.13,238,33.08,359.16"/><path class="cls-1" d="M144.06-113.8C145.44-2,111.69,103.84,83.66,210.85c-13,49.46-24.82,100.54-27.42,151.75-2.9,57.28,4,114.69,11.15,171.41,7.61,60.57,16.45,121.11,19,182.16,2.63,61.42-1.29,123.19-6.26,184.39-10.56,130-34.53,263.3-29,392.08,5.55,128.47,69.91,248.22,73.3,379.17"/><path class="cls-1" d="M100-135.13C96.85-17.33,43.26,87.69,6.7,197.37c-17.32,51.95-28.56,104.4-26.21,159.42C-17.23,410.11-5.6,462.53,5.94,514.45,18.11,569.19,30.71,624,35.76,680c5.56,61.7-1.62,123.58-9.95,184.72C16.51,933,4.29,1000.83-6.1,1068.94c-9.9,64.85-23.06,134.13-18.06,198.6,10.65,137.39,103.48,256.72,111,397.9"/><path class="cls-1" d="M49.56-150.94C43.81-28-27.68,75.22-70.28,187.16c-20.82,54.71-31,109-23.91,167.41,6.14,50.28,21.7,98.64,37,146.71C-41.34,551-25.83,601.05-19.34,653c7.73,61.84-1.76,124-12.51,184.92-12.38,70.15-28.65,139.53-42.49,209.39-12.91,65.2-29.63,136.35-23.74,201.51,13,144.52,130.35,262.32,139.1,411.9"/><path class="cls-1" d="M-22.18-88.52c51.08,2,98.49,13.45,145.32,33.73C162.8-37.62,200.78-16.62,241.7-2.42c48.79,16.94,99.82,24.47,150.72,13.15C440.87,0,485.13-23.62,529.09-45.81c45.76-23.1,92.61-45.55,143.47-54.67C731.12-111,789.69-100.83,846-83.7,969.47-46.12,1096.6,35.21,1226.07,23.56c58.22-5.24,108-30.27,160-58.43,53.47-28.94,104.6-44.07,165.94-41.6"/><path class="cls-1" d="M-46.27-21.72C57.27-16.1,145.09,28.78,241.24,62c49.09,17,98.82,30.59,150.58,18.68C443.1,68.92,490.28,43.16,537,19.9c50-24.9,101.25-49.73,156.52-60.49,59.73-11.64,118.09-.37,175.1,18.41C988.89,17.43,1111.3,99.32,1239.2,88.91c56-4.56,105.9-26,158.27-48,54.35-22.92,105.6-29,164-20.1"/><path class="cls-1" d="M-78.79,44.37C34.47,51.83,138,92.1,244.86,126.8c48.53,15.76,96.29,33.87,147.43,21.67,54.78-13.06,105.56-41,155.76-65.65,55.05-27,111.44-54.28,171.83-67,60.82-12.79,119-.35,176.61,20.53,117.92,42.78,233,122.89,360.45,117,53.64-2.47,103.83-18.83,156.3-32.29,55.63-14.28,107.14-9.31,161.93,6.73"/><path class="cls-1" d="M-113.57,110.26c122.36,8.45,239.93,41.83,356.8,77.16,49.44,15,97.32,37.33,149.22,24.74,57.94-14,112.08-43.53,165.62-68.94C615.8,115.82,674.56,88,737,73c64.43-15.58,122.89-4,183.83,19.86,117.59,45.94,226.39,125.28,355.19,124.84,51.75-.17,102.94-11.3,155-15.17,57.07-4.25,108.74,12.09,160.45,34.94"/><path class="cls-1" d="M-144.47,176.49c130.94,7.92,260.67,33,387,67.95,50.05,13.83,97.23,38.36,149.42,25.5,59.36-14.63,115.49-43.72,171-68.59,63-28.23,127-57.19,194.53-72.9,63.2-14.71,120-3.79,179.42,20.46,119.05,48.58,224.49,129.8,356.12,133.39,51.08,1.39,103.73-5.17,155.07-.66,58.42,5.14,110.39,31.7,160.43,60.55"/><path class="cls-1" d="M-165.32,243.57c135.4,4.89,272.47,19.27,404.24,51.67,46.05,11.32,91.46,36.85,139.36,27.38,62.2-12.3,121.72-41.26,180.07-65.12,67.72-27.68,136.53-56.41,208.48-71.12,62.08-12.68,118.27-2.33,176.28,21.75C1064,258.28,1169.77,344.48,1304.63,348c51.89,1.33,106-2.84,157.47,7.35,60.12,11.9,112.63,45.8,162.69,79.52"/><path class="cls-1" d="M-170.29,311.68c131.91-2.53,266.8,3.69,396.4,29.77,23.71,4.78,47.34,10.33,70.36,17.79,22.08,7.16,37.63,13.53,61.38,11.7,62.23-4.78,124.1-31.4,182.6-51.32C670.24,275.42,802.56,230,936.93,281.4c62.22,23.8,119.84,57.83,179.88,86.37,62.35,29.65,121.44,47.54,190.49,47.83,53.89.23,110.15-3.93,163.32,7.89,62.27,13.85,116.51,49.69,168.19,85.5"/><path class="cls-1" d="M-162.41,374.43C-41,366.3,81.44,381,200.73,403c27.19,5,54.62,10,81.49,16.64,18.85,4.64,35.89,13.16,55.5,14.72,60.87,4.84,125.84-20.26,183.08-37.26,68.8-20.42,138.57-42.31,210.46-48.18,65.41-5.34,131.21-7.49,194.35,13.05,64.06,20.83,122.51,55.12,183.68,82.76,29.24,13.21,59.23,25.3,90.56,32.66,32.8,7.7,63.88,5.7,97.08,6.49,57.76,1.39,117-1.54,174.41,8.06,64.76,10.83,122.66,40.24,178.3,74"/><path class="cls-1" d="M-147,431.35c117.54-7.93,232.09,21.28,345.7,47.39,23.07,5.3,46.18,10.45,69.45,14.84,24.19,4.58,45.78,14.19,70.89,14.25,57.07.13,114.29-23.25,167.4-41.49,65-22.32,130.65-45.59,199.15-54.43A471.47,471.47,0,0,1,754,408.47c19.18-.5,37.53-4.82,56.71-5.7,34.05-1.56,67.66,4.54,99.89,15.29,65.33,21.81,123.16,60.39,184.19,91.41,26.72,13.58,54.3,26,83.28,33.94,33.47,9.12,64.75,7,98.8,7.5,62.51,1,126.05-3.31,188.7,2.14,67.81,5.89,130.63,26.94,191.62,56.58"/><path class="cls-1" d="M-127.59,485.18c112.78-4.14,214.83,41.5,320.23,74.54,43.14,13.52,95.35,30.7,140.88,27.44,57.23-4.09,111.92-33.3,163.09-57,61.11-28.27,122.87-56.82,188.85-71.79,71.7-16.27,145.1-25.62,214.94,2.38,61.32,24.59,113.73,66,169,101.24,26,16.56,53,32.32,82.1,43,33.92,12.45,64.75,12.46,100,12.22,67.74-.48,136.11-7.36,204.24-7A622.69,622.69,0,0,1,1662,646.15"/><path class="cls-1" d="M-107.75,538.67c111.68.82,200.89,64.92,300.32,106.25,43.9,18.25,95.42,34.6,143.23,24.65,56.47-11.76,106.81-47.79,154.73-78,113.19-71.36,263.6-160.88,398.55-96,60.44,29.08,109.18,76.83,161.13,118.17,54.28,43.19,105.31,71.83,175.47,69.71,146.55-4.44,292.66-35,439-1.83"/><path class="cls-1" d="M-91,594.57c112.8,4.92,189,86.73,284.23,135.29,44.51,22.68,94.69,37.67,144,22.35,57.33-17.81,104.64-61.68,150.2-98.83C589.63,570,737.33,457,874,527.66c64.91,33.56,112.71,92,164.35,142,47.86,46.35,96.7,83.54,165.31,80.57,153.39-6.63,307.15-45.74,462.24-28"/><path class="cls-1" d="M-81,655.64C34.54,661.65,98.79,757.9,192.23,811c47.26,26.84,101.33,38.11,153.13,17.65,55.79-22,98.94-69.21,141.09-110.08C584,624,738.76,491,879.84,577.53c59.55,36.52,101.94,95.23,147.45,146.78,44.77,50.71,92,96.31,162.89,93.81,158.24-5.59,316-48.18,476.09-44.11"/><path class="cls-1" d="M-81,724.5C35.34,730,97.64,830.29,191.51,883.17c48.12,27.11,104.51,36.69,156.78,15.66,56.49-22.72,99.2-71.5,140.93-113.91,95.25-96.82,249.42-231.28,390.57-142.71C939.5,679.68,981.64,739.49,1027.05,792c45,52,91.19,96.56,162.73,95.42,158.49-2.54,316.12-46.64,476.18-47.28"/><path class="cls-1" d="M-91,801.15c116.61,5.9,188,102.08,285.34,152.33,48.52,25,103.27,36.26,155.2,14.61,59.57-24.84,104.46-77.62,148.22-123,93.62-97,234.56-226.13,375.65-140.6,65.67,39.81,112.13,104.55,163.15,160.33,45.82,50.09,94,94,164.34,92.86,154.24-2.41,306.82-50.94,462.8-51.31"/><path class="cls-1" d="M-107.75,883c119.23,5,202.1,95.73,305.43,142.56,52.25,23.69,109.14,34.66,162.62,8.7,59.59-28.94,104.77-83.37,149.29-130.75,51.05-54.32,104.33-109.67,171.53-144C751.84,723.35,821.67,729.05,887,773.9c61.41,42.16,107.87,102.42,158.67,156,47.72,50.31,100.72,100.58,173.27,99,147.33-3.15,291.63-56.89,440.93-57.88"/><path class="cls-1" d="M-127.59,967.2c124.59,3.57,220.18,90,332.29,132.34,53.71,20.31,110.1,30.68,163.12,3.48,62.16-31.89,109.4-89.95,156-140.3,51.36-55.51,104.82-113.8,173.24-148.48,68.21-34.57,134.24-19.9,195.48,22.76,63.64,44.34,113.22,105.79,167.21,160.7,49,49.86,107.08,105,180.51,102.83,139.36-4.21,273.56-63.71,415.12-65.65"/><path class="cls-1" d="M-147,1051.09c127.85,2.13,234.21,80.85,352,119.75,56.39,18.62,115.55,30.55,170.56,1.94,65-33.81,114.7-94.43,163.76-147.21,50.21-54,102.31-111.74,168.58-146.31,33.53-17.48,63.61-25.39,100.94-17.21,33.15,7.26,63.64,23.76,91.23,43.11,67.88,47.62,121.62,112.42,181.16,169.45,49.06,47,108.83,100.27,179.86,97.47,131.74-5.2,255.61-70.39,389.85-73.25"/><path class="cls-1" d="M-162.41,1131.89c131.71,1.51,247.14,74.76,370.71,110.67,59.39,17.26,121.56,28.8,178.64-1.11,65.82-34.49,117.3-94.14,168.29-146.73,51.77-53.39,106-112.65,174.65-144.31,68-31.34,132.49-2,189.1,39.61,65.45,48.11,119.69,109.53,180.12,163.42,49.75,44.36,109.66,92.77,178.71,89.68,125.93-5.65,240.91-76.12,369.65-79.33"/><path class="cls-1" d="M-170.29,1206.86C-38,1209.25,82,1276.94,207.25,1311.43c58.34,16.06,122.52,29.68,180.2,4.68,70.84-30.7,127.74-91.28,183-143.21,52.64-49.45,108.47-106.38,177.34-132.53,64.86-24.62,124.5,1.94,178.37,39.57,63.66,44.47,117.71,101,177.5,150.29,53.26,43.89,112.53,85.93,182.94,82.94,123.17-5.23,232.79-79.79,359.05-82.51"/><path class="cls-1" d="M-165.55,1275c131.53,4.59,250.15,68.65,375.35,101.8,60.82,16.1,123.82,27.76,183.48,1.91,69.15-30,126.32-84.57,182.66-133.18,54.8-47.28,112.76-101,182.49-125,64.29-22.08,123.46,5.19,176.35,42,61,42.5,113.61,95.74,172.07,141.5,51,40,108.2,76.76,174,74,124-5.26,235-79.37,362-82.13"/><path class="cls-1" d="M-145.58,1339.74c123,4.43,233.27,60.27,350.68,90.37,61.86,15.86,125,26,185.91,1.61,66.93-26.76,124-74.9,180.43-118.49,55.27-42.69,112.93-89.74,180.42-111.43,62.18-20,118.42,1.11,171.38,35,103.63,66.32,201.88,199.57,333.74,194.15,127.76-5.26,244.6-77.25,375.28-80"/><path class="cls-1" d="M-116,1402.55c113.74,2.94,214.89,51.29,324.08,76.29,57.53,13.18,116.92,20.09,174,1.52,65.28-21.23,122.74-62.26,179.43-99.8,55.77-36.94,113.89-76.78,179.56-93.59,59.72-15.29,115.57.75,167.85,30.75,101.35,58.17,189.24,163.09,313,158.54,133.52-4.92,258.34-74.43,394.65-76.88"/><path class="cls-1" d="M-82.68,1464.61c103,1,194.18,41,293.72,60.22,52.54,10.13,108.26,14.28,160.7,1.68,63.14-15.17,120.54-48.24,177.25-78.72,106.86-57.44,216.23-106.08,334.87-51.6,47.36,21.75,89.66,52.64,134.94,78.15,52.11,29.35,104.5,46.14,163.66,44.27,140.17-4.41,273.59-71.43,416.4-73.37"/><path class="cls-1" d="M-51.54,1527.1a593.21,593.21,0,0,1,142.26,16.53c38.88,9.36,77.21,20.89,116.75,27.34,50.09,8.16,103.91,10.85,154.14,2.76,61-9.82,118.29-35,175-58.54,103.15-42.89,212.11-77.47,322.78-40.22,46.08,15.51,88,40.48,132.57,59.61,50.46,21.68,99.78,29.58,153.64,28.11,146.44-4,287.77-68.53,436.76-70.1"/></svg>